<?xml version="1.0" standalone="no"?>
<!DOCTYPE svg PUBLIC "-//W3C//DTD SVG 20010904//EN"
 "http://www.w3.org/TR/2001/REC-SVG-20010904/DTD/svg10.dtd">
<svg version="1.0" xmlns="http://www.w3.org/2000/svg"
 width="960.000000pt" height="960.000000pt" viewBox="0 0 960.000000 960.000000"
 preserveAspectRatio="xMidYMid meet">
<metadata>
Created by potrace 1.11, written by Peter Selinger 2001-2013
</metadata>
<g transform="translate(0.000000,960.000000) scale(0.100000,-0.100000)"
fill="#000000" stroke="none">
<path d="M4815 5389 c-215 -31 -380 -158 -429 -330 -45 -157 42 -252 294 -319
98 -26 155 -52 164 -75 31 -82 -51 -170 -168 -182 -101 -10 -156 38 -156 137
0 44 -2 51 -17 46 -10 -2 -82 -8 -160 -11 l-142 -7 -7 -45 c-15 -98 8 -195 59
-250 75 -82 393 -105 580 -42 253 85 437 361 351 529 -35 69 -122 117 -306
166 -73 19 -140 42 -150 51 -25 22 -23 68 5 93 42 41 77 52 140 48 75 -6 107
-36 107 -99 l0 -40 88 6 c48 3 119 8 159 11 l71 6 7 46 c15 111 -26 192 -119
232 -80 36 -238 48 -371 29z"/>
<path d="M6873 5388 c-6 -7 -77 -128 -158 -268 -81 -140 -213 -367 -293 -505
-79 -137 -157 -271 -173 -297 l-29 -48 74 0 74 0 326 559 c179 308 326 562
326 565 0 12 -138 6 -147 -6z"/>
<path d="M2150 5348 c-6 -18 -51 -150 -100 -293 -49 -143 -124 -366 -168 -495
-44 -129 -83 -243 -87 -252 -7 -17 11 -18 296 -18 451 0 557 19 674 120 70 60
112 123 137 203 28 95 20 149 -32 199 -22 20 -53 39 -69 43 -17 4 -31 10 -31
14 0 4 26 18 57 31 118 49 207 176 208 297 0 69 -17 101 -74 140 -55 37 -116
43 -466 43 l-333 0 -12 -32z m505 -202 c36 -24 40 -51 13 -104 -35 -71 -69
-86 -205 -91 -62 -2 -113 -2 -113 0 0 7 71 202 77 212 9 15 201 1 228 -17z
m-132 -407 c20 -5 44 -21 53 -35 15 -23 15 -28 0 -69 -20 -52 -62 -90 -114
-105 -42 -11 -252 -14 -252 -3 0 5 16 56 36 115 l36 108 101 0 c56 0 119 -5
140 -11z"/>
<path d="M3519 5238 c-56 -79 -222 -309 -367 -513 -146 -203 -276 -385 -290
-402 l-24 -33 170 0 170 0 58 90 57 90 193 0 194 0 0 -90 0 -90 170 0 170 0 0
83 c0 74 -10 358 -25 697 -3 69 -6 167 -6 218 l-2 92 -183 0 -183 0 -102 -142z
m184 -270 c-2 -68 -6 -156 -9 -195 l-6 -73 -119 0 c-65 0 -119 2 -119 5 0 9
244 385 250 385 3 0 4 -55 3 -122z"/>
<path d="M5605 5368 c-3 -7 -63 -184 -134 -393 -71 -209 -152 -447 -180 -529
-28 -82 -51 -150 -51 -152 0 -2 206 -4 458 -4 l457 0 41 120 40 120 -288 0
c-224 0 -288 3 -288 13 0 6 16 58 36 115 l37 102 262 0 263 0 35 105 36 105
-260 0 c-200 0 -259 3 -259 12 0 7 12 48 26 90 l26 78 285 2 286 3 38 113 38
112 -450 0 c-351 0 -451 -3 -454 -12z"/>
<path d="M7070 5375 c0 -3 36 -121 81 -262 l81 -256 -284 -284 -283 -283 185
1 185 0 165 174 c90 96 168 171 171 167 4 -4 27 -81 52 -172 l44 -165 186 -3
c103 -1 187 0 187 4 0 3 -39 126 -86 273 -48 146 -87 271 -88 278 -1 6 105
119 234 250 129 131 244 248 254 261 l19 22 -179 -1 -179 0 -110 -124 c-60
-69 -127 -144 -147 -167 -20 -23 -40 -39 -44 -36 -3 4 -23 78 -43 165 l-38
158 -182 3 c-99 1 -181 0 -181 -3z"/>
</g>
</svg>
